# xmcd CD database file
#
# Track frame offsets:
#	150
#	33230
#	68856
#	149313
#	174116
#	224149
#	280231
#
# Disc length: 4301 seconds
#
# Revision: 0
# Processed by: cddbd v1.5.2PL0 Copyright (c) Steve Scherf et al.
# Submitted via: CDex 1.70beta2
#
DISCID=6810cb07
DTITLE=Cornell, Judith (Ph.D.) - The Mandala Healing Kit
DYEAR=1900
DGENRE=New Age
TTITLE0=Beyond The Beyond
TTITLE1=Light Inside
TTITLE2=Loving Your Body Temple
TTITLE3=My Heart Spinning
TTITLE4=Alleluia
TTITLE5=Chanting Healing Sounds
TTITLE6=Dancing the Vision
EXTD=
EXTT0=
EXTT1=
EXTT2=
EXTT3=
EXTT4=
EXTT5=
EXTT6=
PLAYORDER=
